<mxfile host="app.diagrams.net" agent="Mozilla/5.0 (Windows NT 10.0; Win64; x64) AppleWebKit/537.36 (KHTML, like Gecko) Chrome/131.0.0.0 Safari/537.36" version="24.8.6">
  <diagram name="第 1 页" id="viq8V4ESfvzPljSPuIM_">
    <mxGraphModel dx="1050" dy="565" grid="1" gridSize="10" guides="1" tooltips="1" connect="1" arrows="1" fold="1" page="1" pageScale="1" pageWidth="827" pageHeight="1169" math="0" shadow="0">
      <root>
        <mxCell id="0" />
        <mxCell id="1" parent="0" />
        <mxCell id="-009iJP7m1X26NWHjYo9-3" value="" style="edgeStyle=orthogonalEdgeStyle;rounded=0;orthogonalLoop=1;jettySize=auto;html=1;" edge="1" parent="1" source="-009iJP7m1X26NWHjYo9-1" target="-009iJP7m1X26NWHjYo9-2">
          <mxGeometry relative="1" as="geometry" />
        </mxCell>
        <mxCell id="-009iJP7m1X26NWHjYo9-1" value="" style="rounded=0;whiteSpace=wrap;html=1;" vertex="1" parent="1">
          <mxGeometry x="360" y="70" width="120" height="60" as="geometry" />
        </mxCell>
        <mxCell id="-009iJP7m1X26NWHjYo9-5" value="" style="edgeStyle=orthogonalEdgeStyle;rounded=0;orthogonalLoop=1;jettySize=auto;html=1;" edge="1" parent="1" source="-009iJP7m1X26NWHjYo9-2" target="-009iJP7m1X26NWHjYo9-4">
          <mxGeometry relative="1" as="geometry" />
        </mxCell>
        <mxCell id="-009iJP7m1X26NWHjYo9-7" value="" style="edgeStyle=orthogonalEdgeStyle;rounded=0;orthogonalLoop=1;jettySize=auto;html=1;" edge="1" parent="1" source="-009iJP7m1X26NWHjYo9-2" target="-009iJP7m1X26NWHjYo9-6">
          <mxGeometry relative="1" as="geometry" />
        </mxCell>
        <mxCell id="-009iJP7m1X26NWHjYo9-2" value="" style="rhombus;whiteSpace=wrap;html=1;" vertex="1" parent="1">
          <mxGeometry x="380" y="210" width="80" height="80" as="geometry" />
        </mxCell>
        <mxCell id="-009iJP7m1X26NWHjYo9-4" value="" style="whiteSpace=wrap;html=1;" vertex="1" parent="1">
          <mxGeometry x="520" y="220" width="120" height="60" as="geometry" />
        </mxCell>
        <mxCell id="-009iJP7m1X26NWHjYo9-6" value="" style="whiteSpace=wrap;html=1;" vertex="1" parent="1">
          <mxGeometry x="360" y="380" width="120" height="60" as="geometry" />
        </mxCell>
      </root>
    </mxGraphModel>
  </diagram>
</mxfile>
